<svg width="51" height="51" viewBox="0 0 51 51" fill="none" xmlns="http://www.w3.org/2000/svg">
<path d="M42.5531 39.8886C42.5631 39.8736 42.578 39.8587 42.588 39.8438C45.8502 35.964 47.8125 30.9636 47.8125 25.5C47.8125 20.0364 45.8502 15.036 42.593 11.1562C42.583 11.1413 42.5681 11.1313 42.5581 11.1164C42.5033 11.0517 42.4535 10.9919 42.3987 10.9321C42.3788 10.9072 42.3589 10.8873 42.339 10.8624L42.1348 10.6283L42.1298 10.6233C42.0551 10.5387 41.9754 10.454 41.9007 10.3693L41.8957 10.3644C41.7363 10.195 41.577 10.0257 41.4126 9.86133L41.4076 9.85635L41.1686 9.61729L41.1536 9.60234C41.0789 9.52764 41.0042 9.45791 40.9295 9.38818C40.9046 9.36328 40.8797 9.33838 40.8498 9.31348C40.8 9.26367 40.7502 9.21885 40.7004 9.17402C40.6855 9.15908 40.6655 9.14414 40.6506 9.12422C36.6762 5.43867 31.3521 3.1875 25.5 3.1875C19.6479 3.1875 14.3238 5.43867 10.3444 9.12422C10.3295 9.13916 10.3096 9.1541 10.2946 9.17402C10.2448 9.21885 10.195 9.26865 10.1452 9.31846C10.1203 9.34336 10.0954 9.36826 10.0655 9.39316C9.99082 9.46289 9.91611 9.5376 9.84141 9.60732L9.82647 9.62227L9.5874 9.86133L9.58242 9.86631C9.41807 10.0307 9.25869 10.2 9.09932 10.3693L9.09434 10.3743C9.01465 10.459 8.93994 10.5437 8.86523 10.6283L8.86025 10.6333C8.79053 10.708 8.7208 10.7877 8.65605 10.8674C8.63613 10.8923 8.61621 10.9122 8.59629 10.9371C8.5415 10.9969 8.4917 11.0616 8.43691 11.1214C8.42695 11.1363 8.41201 11.1463 8.40205 11.1612C5.1498 15.036 3.1875 20.0364 3.1875 25.5C3.1875 30.9636 5.1498 35.964 8.40703 39.8438C8.41699 39.8587 8.43193 39.8736 8.44189 39.8886L8.59629 40.0728C8.61621 40.0978 8.63613 40.1177 8.65605 40.1426L8.86025 40.3767C8.86025 40.3816 8.86523 40.3816 8.86523 40.3866C8.93994 40.4713 9.01465 40.556 9.09434 40.6356L9.09932 40.6406C9.25869 40.81 9.41807 40.9793 9.57744 41.1437L9.58242 41.1486C9.66211 41.2283 9.73682 41.308 9.8165 41.3827L9.83145 41.3977C9.9958 41.562 10.1651 41.7214 10.3345 41.8758C14.3238 45.5613 19.6479 47.8125 25.5 47.8125C31.3521 47.8125 36.6762 45.5613 40.6556 41.8758C40.8252 41.7203 40.9913 41.5608 41.1536 41.3977L41.1686 41.3827C41.2482 41.303 41.3279 41.2283 41.4026 41.1486L41.4076 41.1437C41.572 40.9793 41.7313 40.81 41.8857 40.6406L41.8907 40.6356C41.9654 40.551 42.0451 40.4713 42.1198 40.3866C42.1198 40.3816 42.1248 40.3816 42.1248 40.3767C42.1945 40.302 42.2643 40.2223 42.329 40.1426C42.3489 40.1177 42.3688 40.0978 42.3888 40.0728C42.4451 40.0128 42.4999 39.9514 42.5531 39.8886ZM42.7573 32.7864C42.07 34.4101 41.1636 35.9142 40.0579 37.2788C38.8127 36.2026 37.4512 35.2688 35.9988 34.4947C36.5766 32.1589 36.9352 29.5939 37.0298 26.8945H44.1768C44.0273 28.9315 43.5492 30.9088 42.7573 32.7864ZM44.1768 24.1055H37.0298C36.9352 21.4061 36.5766 18.8411 35.9988 16.5053C37.4581 15.7283 38.8178 14.792 40.0579 13.7212C42.4613 16.6795 43.899 20.3041 44.1768 24.1055ZM32.7864 8.24268C34.7637 9.07939 36.5616 10.2349 38.1454 11.6892C37.2254 12.4726 36.235 13.1694 35.187 13.771C34.4051 11.5298 33.404 9.58242 32.2386 8.02354C32.4229 8.09326 32.6071 8.16797 32.7864 8.24268ZM28.2741 43.1358C27.8159 43.4944 27.3577 43.7684 26.8945 43.9526V34.7139C28.8707 34.8517 30.8141 35.2918 32.6569 36.0187C32.2436 37.2439 31.7654 38.3745 31.2126 39.3955C30.346 41.0092 29.33 42.2991 28.2741 43.1358ZM31.2126 11.6045C31.7605 12.6305 32.2436 13.761 32.6569 14.9812C30.8141 15.7082 28.8707 16.1483 26.8945 16.2861V7.05234C27.3527 7.23662 27.8159 7.50557 28.2741 7.86914C29.33 8.70088 30.346 9.99082 31.2126 11.6045ZM26.8945 31.9198V26.8945H34.2407C34.161 29.0959 33.8871 31.2325 33.4289 33.2596L33.414 33.3193C31.3238 32.5267 29.1258 32.0549 26.8945 31.9198ZM26.8945 24.1055V19.0802C29.1756 18.9407 31.367 18.4576 33.414 17.6807L33.4289 17.7404C33.8871 19.7675 34.161 21.8991 34.2407 24.1055H26.8945ZM24.1055 26.8945V31.9198C21.8244 32.0593 19.633 32.5424 17.586 33.3193L17.5711 33.2596C17.1129 31.2325 16.839 29.1009 16.7593 26.8945H24.1055ZM16.7593 24.1055C16.839 21.9041 17.1129 19.7675 17.5711 17.7404L17.586 17.6807C19.633 18.4576 21.8194 18.9407 24.1055 19.0802V24.1055H16.7593ZM24.1055 34.7139V43.9477C23.6473 43.7634 23.1841 43.4944 22.7259 43.1309C21.67 42.2991 20.649 41.0042 19.7824 39.3905C19.2346 38.3646 18.7515 37.234 18.3381 36.0138C20.1908 35.2866 22.1183 34.8533 24.1055 34.7139ZM24.1055 16.2861C22.1293 16.1483 20.1859 15.7082 18.3431 14.9812C18.7564 13.7561 19.2346 12.6255 19.7874 11.6045C20.654 9.99082 21.67 8.6959 22.7309 7.86416C23.1891 7.50557 23.6473 7.23164 24.1104 7.04736V16.2861H24.1055ZM18.2136 8.24268C18.3979 8.16797 18.5771 8.09326 18.7614 8.02354C17.596 9.58242 16.5949 11.5298 15.813 13.771C14.7671 13.1733 13.776 12.4761 12.8546 11.6892C14.4384 10.2349 16.2363 9.07939 18.2136 8.24268ZM8.24268 18.2136C8.92998 16.5899 9.83643 15.0858 10.9421 13.7212C12.1822 14.792 13.5419 15.7283 15.0012 16.5053C14.4234 18.8411 14.0648 21.4061 13.9702 24.1055H6.82324C6.97266 22.0685 7.45078 20.0912 8.24268 18.2136ZM6.82324 26.8945H13.9702C14.0648 29.5939 14.4234 32.1589 15.0012 34.4947C13.5488 35.2688 12.1873 36.2026 10.9421 37.2788C8.53866 34.3205 7.10099 30.6959 6.82324 26.8945ZM18.2136 42.7573C16.2363 41.9206 14.4384 40.7651 12.8546 39.3108C13.776 38.5239 14.7671 37.8316 15.813 37.229C16.5949 39.4702 17.596 41.4176 18.7614 42.9765C18.5771 42.9067 18.3929 42.832 18.2136 42.7573ZM32.7864 42.7573C32.6021 42.832 32.4229 42.9067 32.2386 42.9765C33.404 41.4176 34.4051 39.4702 35.187 37.229C36.2329 37.8267 37.224 38.5239 38.1454 39.3108C36.5704 40.7591 34.7575 41.925 32.7864 42.7573Z" fill="url(#paint0_linear_110_638)"/>
<defs>
<linearGradient id="paint0_linear_110_638" x1="25.5" y1="3.1875" x2="25.5" y2="47.8125" gradientUnits="userSpaceOnUse">
<stop stop-color="#33DE9E"/>
<stop offset="1" stop-color="white"/>
</linearGradient>
</defs>
</svg>
