<svg width="48" height="48" viewBox="0 0 48 48" fill="none" xmlns="http://www.w3.org/2000/svg">
<path d="M15.33 20.474L18.396 17.9L20.966 20.964L27.094 15.822L29.666 18.886L20.474 26.6L15.33 20.472V20.474Z" fill="url(#paint0_linear_110_624)"/>
<path fill-rule="evenodd" clip-rule="evenodd" d="M32.414 9.78595C35.1705 12.5423 36.8261 16.2101 37.0699 20.1007C37.3137 23.9913 36.1289 27.837 33.738 30.9159C33.77 30.9419 33.798 30.9699 33.828 30.9999L42.314 39.4859C42.6783 39.8632 42.8799 40.3684 42.8754 40.8927C42.8708 41.4171 42.6605 41.9188 42.2897 42.2896C41.9188 42.6604 41.4172 42.8707 40.8928 42.8753C40.3684 42.8799 39.8632 42.6783 39.486 42.3139L31 33.8279C30.9711 33.7988 30.9431 33.7688 30.916 33.7379C27.7007 36.2319 23.6561 37.4073 19.6049 37.025C15.5538 36.6426 11.8005 34.7313 9.10852 31.6799C6.41658 28.6284 4.98825 24.666 5.11411 20.5988C5.23996 16.5316 6.91055 12.6651 9.78601 9.78595C11.2718 8.30012 13.0356 7.1215 14.9769 6.31737C16.9182 5.51324 18.9988 5.09937 21.1 5.09937C23.2012 5.09937 25.2819 5.51324 27.2231 6.31737C29.1644 7.1215 30.9283 8.30012 32.414 9.78595ZM29.586 29.5859C30.7152 28.475 31.6133 27.1515 32.2284 25.6917C32.8435 24.2319 33.1636 22.6648 33.17 21.0807C33.1765 19.4966 32.8692 17.927 32.266 16.4622C31.6628 14.9975 30.7755 13.6667 29.6554 12.5466C28.5353 11.4264 27.2045 10.5392 25.7397 9.93597C24.275 9.33274 22.7053 9.0255 21.1213 9.03195C19.5372 9.0384 17.9701 9.35842 16.5103 9.97355C15.0505 10.5887 13.727 11.4867 12.616 12.6159C10.3959 14.8726 9.15732 17.9151 9.17022 21.0807C9.18311 24.2464 10.4464 27.2787 12.6848 29.5171C14.9233 31.7556 17.9556 33.0189 21.1213 33.0317C24.2869 33.0446 27.3294 31.8061 29.586 29.5859Z" fill="url(#paint1_linear_110_624)"/>
<defs>
<linearGradient id="paint0_linear_110_624" x1="22.498" y1="15.822" x2="22.498" y2="26.6" gradientUnits="userSpaceOnUse">
<stop stop-color="#33DE9E"/>
<stop offset="1" stop-color="white"/>
</linearGradient>
<linearGradient id="paint1_linear_110_624" x1="23.9909" y1="5.09937" x2="23.9909" y2="42.8754" gradientUnits="userSpaceOnUse">
<stop stop-color="#33DE9E"/>
<stop offset="1" stop-color="white"/>
</linearGradient>
</defs>
</svg>
