<svg width="56" height="56" viewBox="0 0 56 56" fill="none" xmlns="http://www.w3.org/2000/svg">
<path d="M11.6667 49C10.3833 49 9.28434 48.5427 8.36967 47.628C7.455 46.7133 6.99845 45.6151 7 44.3333V11.6667C7 10.3833 7.45734 9.28434 8.372 8.36967C9.28667 7.455 10.3849 6.99845 11.6667 7H44.3333C45.6167 7 46.7157 7.45734 47.6303 8.372C48.545 9.28667 49.0016 10.3849 49 11.6667V44.3333C49 45.6167 48.5427 46.7157 47.628 47.6303C46.7133 48.545 45.6151 49.0016 44.3333 49H11.6667ZM11.6667 44.3333H44.3333V11.6667H11.6667V44.3333Z" fill="white"/>
</svg>
