<svg width="5" height="24" viewBox="0 0 5 24" fill="none" xmlns="http://www.w3.org/2000/svg">
<g clip-path="url(#clip0_349_1127)">
<path d="M5.21701 12C5.21701 12.6917 4.94224 13.355 4.45314 13.8441C3.96405 14.3332 3.30069 14.608 2.60901 14.608C1.91732 14.608 1.25397 14.3332 0.764873 13.8441C0.275778 13.355 0.00100708 12.6917 0.00100708 12C0.00100708 11.3083 0.275778 10.645 0.764873 10.1559C1.25397 9.66677 1.91732 9.392 2.60901 9.392C3.30069 9.392 3.96405 9.66677 4.45314 10.1559C4.94224 10.645 5.21701 11.3083 5.21701 12ZM5.21701 2.608C5.21701 3.29968 4.94224 3.96304 4.45314 4.45213C3.96405 4.94123 3.30069 5.216 2.60901 5.216C1.91732 5.216 1.25397 4.94123 0.764873 4.45213C0.275778 3.96304 0.00100708 3.29968 0.00100708 2.608C0.00100708 1.91632 0.275778 1.25296 0.764873 0.763866C1.25397 0.274771 1.91732 0 2.60901 0C3.30069 0 3.96405 0.274771 4.45314 0.763866C4.94224 1.25296 5.21701 1.91632 5.21701 2.608ZM5.21701 21.391C5.21701 22.0827 4.94224 22.746 4.45314 23.2351C3.96405 23.7242 3.30069 23.999 2.60901 23.999C1.91732 23.999 1.25397 23.7242 0.764873 23.2351C0.275778 22.746 0.00100708 22.0827 0.00100708 21.391C0.00100708 20.6993 0.275778 20.036 0.764873 19.5469C1.25397 19.0578 1.91732 18.783 2.60901 18.783C3.30069 18.783 3.96405 19.0578 4.45314 19.5469C4.94224 20.036 5.21701 20.6993 5.21701 21.391Z" fill="white"/>
</g>
<defs>
<clipPath id="clip0_349_1127">
<rect width="5" height="24" fill="white"/>
</clipPath>
</defs>
</svg>
