<svg width="23" height="24" viewBox="0 0 23 24" fill="none" xmlns="http://www.w3.org/2000/svg">
<g clip-path="url(#clip0_295_690)">
<path d="M11.0732 9C10.813 9 10.5948 8.904 10.4186 8.712C10.2423 8.52 10.1545 8.28267 10.1551 8V6H8.31893C8.0588 6 7.84061 5.904 7.66433 5.712C7.48806 5.52 7.40023 5.28267 7.40085 5C7.40085 4.71667 7.48898 4.479 7.66525 4.287C7.84152 4.095 8.05942 3.99934 8.31893 4H10.1551V2C10.1551 1.71667 10.2432 1.479 10.4195 1.287C10.5958 1.095 10.8137 0.999337 11.0732 1C11.3333 1 11.5515 1.096 11.7278 1.288C11.904 1.48 11.9919 1.71734 11.9912 2V4H13.8274C14.0875 4 14.3057 4.096 14.482 4.288C14.6583 4.48 14.7461 4.71734 14.7455 5C14.7455 5.28334 14.6573 5.521 14.4811 5.713C14.3048 5.905 14.0869 6.00067 13.8274 6H11.9912V8C11.9912 8.28334 11.9031 8.521 11.7268 8.713C11.5506 8.905 11.3327 9.00067 11.0732 9ZM6.48277 22C5.97782 22 5.54541 21.804 5.18552 21.412C4.82563 21.02 4.646 20.5493 4.64661 20C4.64661 19.45 4.82655 18.979 5.18644 18.587C5.54633 18.195 5.97844 17.9993 6.48277 18C6.98771 18 7.42013 18.196 7.78001 18.588C8.1399 18.98 8.31954 19.4507 8.31893 20C8.31893 20.55 8.13898 21.021 7.77909 21.413C7.41921 21.805 6.9871 22.0007 6.48277 22ZM15.6636 22C15.1586 22 14.7262 21.804 14.3663 21.412C14.0064 21.02 13.8268 20.5493 13.8274 20C13.8274 19.45 14.0073 18.979 14.3672 18.587C14.7271 18.195 15.1592 17.9993 15.6636 18C16.1685 18 16.6009 18.196 16.9608 18.588C17.3207 18.98 17.5003 19.4507 17.4997 20C17.4997 20.55 17.3198 21.021 16.9599 21.413C16.6 21.805 16.1679 22.0007 15.6636 22ZM6.48277 17C5.77891 17 5.24703 16.6707 4.88715 16.012C4.52726 15.3533 4.52359 14.6993 4.87613 14.05L6.11554 11.6L2.81045 4H1.89237C1.63225 4 1.41405 3.904 1.23778 3.712C1.06151 3.52 0.97368 3.28267 0.974292 3C0.974292 2.71667 1.06243 2.479 1.2387 2.287C1.41497 2.095 1.63286 1.99934 1.89237 2H3.38425C3.55256 2 3.71323 2.05 3.86624 2.15C4.01925 2.25 4.13401 2.39167 4.21052 2.575L7.90579 11H14.3323L17.6145 4.525C17.691 4.35834 17.8021 4.229 17.9477 4.137C18.0934 4.045 18.2501 3.99934 18.4178 4C18.7697 4 19.0338 4.16667 19.2101 4.5C19.3864 4.83334 19.39 5.16667 19.2211 5.5L15.939 11.95C15.7707 12.2833 15.5488 12.5417 15.2734 12.725C14.998 12.9083 14.6843 13 14.3323 13H7.49265L6.48277 15H16.5816C16.8418 15 17.06 15.096 17.2362 15.288C17.4125 15.48 17.5003 15.7173 17.4997 16C17.4997 16.2833 17.4116 16.521 17.2353 16.713C17.059 16.905 16.8411 17.0007 16.5816 17H6.48277Z" fill="white"/>
</g>
<defs>
<clipPath id="clip0_295_690">
<rect width="22.0339" height="24" fill="white" transform="translate(0.0562134)"/>
</clipPath>
</defs>
</svg>
