<svg width="30" height="27" viewBox="0 0 30 27" fill="none" xmlns="http://www.w3.org/2000/svg">
<path d="M12.975 26.161L10.3875 23.7585C7.7375 21.2924 5.3435 18.8451 3.2055 16.4166C1.0675 13.9881 -0.000999299 11.3125 7.01262e-07 8.38983C7.01262e-07 6 0.787501 4.00424 2.3625 2.40254C3.9375 0.80085 5.9 2.70465e-06 8.25 2.70465e-06C9.575 2.70465e-06 10.825 0.285765 12 0.85729C13.175 1.42882 14.175 2.21085 15 3.20339C15.825 2.21187 16.825 1.42983 18 0.85729C19.175 0.284748 20.425 -0.00101424 21.75 2.70465e-06C24.1 2.70465e-06 26.0625 0.80085 27.6375 2.40254C29.2125 4.00424 30 6 30 8.38983C30 11.3136 28.9375 13.9958 26.8125 16.4364C24.6875 18.8771 22.275 21.3305 19.575 23.7966L17.025 26.161C16.45 26.7203 15.775 27 15 27C14.225 27 13.55 26.7203 12.975 26.161ZM13.575 6.25424C12.85 5.21187 12.075 4.41712 11.25 3.87C10.425 3.32288 9.425 3.04983 8.25 3.05085C6.75 3.05085 5.5 3.55932 4.5 4.57627C3.5 5.59322 3 6.86441 3 8.38983C3 9.71187 3.4625 11.1168 4.3875 12.6046C5.3125 14.0924 6.419 15.5349 7.707 16.9322C8.994 18.3305 10.319 19.6398 11.682 20.8602C13.045 22.0805 14.151 23.0847 15 23.8729C15.85 23.0847 16.9565 22.0805 18.3195 20.8602C19.6825 19.6398 21.0075 18.3305 22.2945 16.9322C23.5815 15.5339 24.6875 14.0914 25.6125 12.6046C26.5375 11.1178 27 9.71288 27 8.38983C27 6.86441 26.5 5.59322 25.5 4.57627C24.5 3.55932 23.25 3.05085 21.75 3.05085C20.575 3.05085 19.575 3.3239 18.75 3.87C17.925 4.4161 17.15 5.21085 16.425 6.25424C16.25 6.50848 16.0375 6.69915 15.7875 6.82627C15.5375 6.95339 15.275 7.01695 15 7.01695C14.725 7.01695 14.4625 6.95339 14.2125 6.82627C13.9625 6.69915 13.75 6.50848 13.575 6.25424Z" fill="#C6C6C6"/>
</svg>
