<svg width="21" height="22" viewBox="0 0 21 22" fill="none" xmlns="http://www.w3.org/2000/svg">
<g clip-path="url(#clip0_62_376)">
<path d="M13.7961 12.3077L12.0525 10.5641H13.5564L15.9538 6.20518H7.69356L5.94997 4.46159H17.3923C17.7265 4.46159 17.9845 4.6034 18.1664 4.88702C18.3483 5.17065 18.3518 5.47926 18.1769 5.81287L15.082 11.3924C14.9222 11.683 14.715 11.9082 14.4604 12.068C14.2059 12.2278 13.9844 12.3077 13.7961 12.3077ZM6.10254 20.1539C5.62305 20.1539 5.21243 19.983 4.87069 19.6413C4.52895 19.2995 4.35837 18.8892 4.35895 18.4103C4.35895 17.9308 4.52982 17.5202 4.87156 17.1785C5.21331 16.8367 5.62363 16.6661 6.10254 16.6667C6.58202 16.6667 6.99264 16.8376 7.33438 17.1793C7.67613 17.5211 7.84671 17.9314 7.84613 18.4103C7.84613 18.8898 7.67526 19.3004 7.33351 19.6422C6.99177 19.9839 6.58144 20.1545 6.10254 20.1539ZM17.8718 21.2872L12.3359 15.7949H6.62561C5.9863 15.7949 5.49955 15.5223 5.16536 14.9772C4.83117 14.432 4.80937 13.8619 5.09997 13.2667L6.01536 11.3924L4.44613 7.86159L0.610229 4.02569L1.83074 2.80518L19.0923 20.0667L17.8718 21.2872ZM10.5923 14.0513L8.84869 12.3077H7.49741L6.62561 14.0513H10.5923ZM14.8205 20.1539C14.341 20.1539 13.9304 19.983 13.5886 19.6413C13.2469 19.2995 13.0763 18.8892 13.0769 18.4103C13.0769 17.9308 13.2478 17.5202 13.5895 17.1785C13.9313 16.8367 14.3416 16.6661 14.8205 16.6667C15.3 16.6667 15.7106 16.8376 16.0523 17.1793C16.3941 17.5211 16.5647 17.9314 16.5641 18.4103C16.5641 18.8898 16.3932 19.3004 16.0515 19.6422C15.7097 19.9839 15.2994 20.1545 14.8205 20.1539Z" fill="white"/>
</g>
<defs>
<clipPath id="clip0_62_376">
<rect width="20.9231" height="20.9231" fill="white" transform="translate(0 0.974365)"/>
</clipPath>
</defs>
</svg>
