<svg width="48" height="48" viewBox="0 0 48 48" fill="none" xmlns="http://www.w3.org/2000/svg">
<path d="M31.4 26.6L36.6 21.4C36.9667 21.0333 37.15 20.5667 37.15 20C37.15 19.4333 36.9667 18.9667 36.6 18.6L31.35 13.35C30.9833 12.9833 30.5247 12.8087 29.974 12.826C29.4233 12.8433 28.9653 13.0347 28.6 13.4C28.2333 13.7667 28.05 14.2253 28.05 14.776C28.05 15.3267 28.2333 15.8013 28.6 16.2L30.3 18H23.95C23.3833 18 22.9167 18.192 22.55 18.576C22.1833 18.96 22 19.4347 22 20C22 20.5667 22.192 21.042 22.576 21.426C22.96 21.81 23.4347 22.0013 24 22H30.3L28.55 23.8C28.1833 24.2 28.008 24.6753 28.024 25.226C28.04 25.7767 28.232 26.2347 28.6 26.6C28.9667 26.9667 29.4333 27.15 30 27.15C30.5667 27.15 31.0333 26.9667 31.4 26.6ZM16.65 34.65C17.0167 35.0167 17.4667 35.2 18 35.2C18.5333 35.2 19 35 19.4 34.6C19.7667 34.2333 19.95 33.7747 19.95 33.224C19.95 32.6733 19.7667 32.1987 19.4 31.8L17.7 30H24.05C24.6167 30 25.0833 29.808 25.45 29.424C25.8167 29.04 26 28.5653 26 28C26 27.4333 25.8087 26.958 25.426 26.574C25.0433 26.19 24.568 25.9987 24 26H17.7L19.45 24.2C19.8167 23.8 20 23.3333 20 22.8C20 22.2667 19.8 21.8 19.4 21.4C19.0333 21.0333 18.5667 20.85 18 20.85C17.4333 20.85 16.9667 21.0333 16.6 21.4L11.4 26.6C11 27 10.8 27.4667 10.8 28C10.8 28.5333 11 29 11.4 29.4L16.65 34.65ZM24 44C21.2333 44 18.6333 43.4747 16.2 42.424C13.7667 41.3733 11.65 39.9487 9.85 38.15C8.05 36.35 6.62533 34.2333 5.576 31.8C4.52667 29.3667 4.00133 26.7667 4 24C4 21.2333 4.52533 18.6333 5.576 16.2C6.62667 13.7667 8.05133 11.65 9.85 9.85C11.65 8.05 13.7667 6.62533 16.2 5.576C18.6333 4.52667 21.2333 4.00133 24 4C26.7667 4 29.3667 4.52533 31.8 5.576C34.2333 6.62667 36.35 8.05133 38.15 9.85C39.95 11.65 41.3753 13.7667 42.426 16.2C43.4767 18.6333 44.0013 21.2333 44 24C44 26.7667 43.4747 29.3667 42.424 31.8C41.3733 34.2333 39.9487 36.35 38.15 38.15C36.35 39.95 34.2333 41.3753 31.8 42.426C29.3667 43.4767 26.7667 44.0013 24 44ZM24 40C28.4333 40 32.2087 38.442 35.326 35.326C38.4433 32.21 40.0013 28.4347 40 24C40 19.5667 38.442 15.7913 35.326 12.674C32.21 9.55667 28.4347 7.99867 24 8C19.5667 8 15.7913 9.558 12.674 12.674C9.55667 15.79 7.99867 19.5653 8 24C8 28.4333 9.558 32.2087 12.674 35.326C15.79 38.4433 19.5653 40.0013 24 40Z" fill="#33DE9E"/>
</svg>
