<svg width="21" height="21" viewBox="0 0 21 21" fill="none" xmlns="http://www.w3.org/2000/svg">
<path d="M7.97436 17.0615C7.97436 18.0205 7.18974 18.8051 6.23077 18.8051C5.27179 18.8051 4.48718 18.0205 4.48718 17.0615C4.48718 16.1025 5.27179 15.3179 6.23077 15.3179C7.18974 15.3179 7.97436 16.1025 7.97436 17.0615ZM14.9487 15.3179C13.9897 15.3179 13.2051 16.1025 13.2051 17.0615C13.2051 18.0205 13.9897 18.8051 14.9487 18.8051C15.9077 18.8051 16.6923 18.0205 16.6923 17.0615C16.6923 16.1025 15.9077 15.3179 14.9487 15.3179ZM6.40513 12.5282V12.441L7.18974 10.959H13.641C14.2513 10.959 14.8615 10.6102 15.1231 10.0872L18.5231 3.98459L17.041 3.1128L13.641 9.21536H7.53846L3.87692 1.36921H1V3.1128H2.74359L5.88205 9.73844L4.66154 11.8307C4.57436 12.0923 4.48718 12.3538 4.48718 12.7025C4.48718 13.6615 5.27179 14.4461 6.23077 14.4461H16.6923V12.7025H6.57949C6.49231 12.7025 6.40513 12.6154 6.40513 12.5282ZM15.8205 2.06664L14.6 0.84613L10.4154 5.03075L8.14872 2.76408L6.92821 3.98459L10.4154 7.47177L15.8205 2.06664Z" fill="white"/>
</svg>
