<svg width="30" height="26" viewBox="0 0 30 26" fill="none" xmlns="http://www.w3.org/2000/svg">
<path d="M12.975 25.2277L10.3875 22.9109C7.7375 20.5328 5.3435 18.1728 3.2055 15.8309C1.0675 13.4891 -0.000999299 10.909 7.01262e-07 8.09052C7.01262e-07 5.78595 0.787501 3.86139 2.3625 2.31683C3.9375 0.77228 5.9 2.60817e-06 8.25 2.60817e-06C9.575 2.60817e-06 10.825 0.27557 12 0.826707C13.175 1.37784 14.175 2.13198 15 3.08911C15.825 2.13296 16.825 1.37882 18 0.826707C19.175 0.27459 20.425 -0.000978061 21.75 2.60817e-06C24.1 2.60817e-06 26.0625 0.77228 27.6375 2.31683C29.2125 3.86139 30 5.78595 30 8.09052C30 10.9099 28.9375 13.4965 26.8125 15.8501C24.6875 18.2037 22.275 20.5695 19.575 22.9477L17.025 25.2277C16.45 25.7426 15.775 26 15 26C14.225 26 13.55 25.7426 12.975 25.2277Z" fill="#FF6F6F"/>
</svg>
